<svg xmlns="http://www.w3.org/2000/svg" viewBox="0 0 512 512">
  <rect width="512" height="512" rx="100" fill="#1E3A8A"/>
  <path d="M120 200 L392 200 L440 320 L440 400 A24 24 0 0 1 416 424 L392 424 A24 24 0 0 1 368 400 L368 360 L144 360 L144 400 A24 24 0 0 1 120 424 L96 424 A24 24 0 0 1 72 400 L72 320 Z" fill="#F59E0B"/>
  <polygon points="152,180 360,180 392,260 120,260" fill="#ffffff" opacity="0.9"/>
  <circle cx="144" cy="310" r="24" fill="#1E3A8A"/>
  <circle cx="368" cy="310" r="24" fill="#1E3A8A"/>
</svg>
